<svg width="86" height="80" viewBox="0 0 86 80" fill="none" xmlns="http://www.w3.org/2000/svg"><path d="M58.751 31.25h-27.5c-.69 0-1.25.56-1.25 1.25v20c0 .69.56 1.25 1.25 1.25h27.5c.69 0 1.25-.56 1.25-1.25v-20c0-.69-.56-1.25-1.25-1.25Z" stroke="#EB5BE5" stroke-width="2.5" stroke-linecap="round" stroke-linejoin="round"/><path d="M51.25 53.75v-25a2.5 2.5 0 0 0-2.5-2.5h-7.5a2.5 2.5 0 0 0-2.5 2.5v25" stroke="#EB5BE5" stroke-width="2.5" stroke-linecap="round" stroke-linejoin="round"/><path d="M1 0v8M1 1h8M85 0v8M85 1h-8M1 80v-8M1 79h8M85 80v-8M85 79h-8" stroke="#EB5BE5" stroke-width="2"/></svg>