<svg width="1297" height="1287" viewBox="0 0 1297 1287" fill="none" xmlns="http://www.w3.org/2000/svg"><path d="M170.973 676.631c-15.311 20.71-2.835 48.667 5.317 60.057 14.46-3.313 46.429-47.631 60.606-69.376 3.403 8.284 39.696 55.225 57.418 77.66l6.379-8.284c-11.696-13.116-37.427-44.525-46.784-65.234-9.357-20.709.354-34.17 6.38-38.312 26.369-13.254 79.037 26.232 102.074 47.631l48.911 64.199L753.65 280.05c-26.369-44.732-55.645-75.244-66.986-84.908-2.481-1.726-14.248-8.905-41.468-23.816-27.22-14.91-53.164-6.212-62.734 0l-46.784 56.951c-11.909-4.142-28.354 7.248-35.088 13.461-103.493 136.335-314.306 414.184-329.617 434.893Z" fill="#EB5BE5" style="mix-blend-mode:hard-light" opacity=".4"/><g style="mix-blend-mode:hard-light" opacity=".4" filter="url(#a)"><path d="M170.973 676.631c-15.311 20.71-2.835 48.667 5.317 60.057 14.46-3.313 46.429-47.631 60.606-69.376 3.403 8.284 39.696 55.225 57.418 77.66l6.379-8.284c-11.696-13.116-37.427-44.525-46.784-65.234-9.357-20.709.354-34.17 6.38-38.312 26.369-13.254 79.037 26.232 102.074 47.631l48.911 64.199L753.65 280.05c-26.369-44.732-55.645-75.244-66.986-84.908-2.481-1.726-14.248-8.905-41.468-23.816-27.22-14.91-53.164-6.212-62.734 0l-46.784 56.951c-11.909-4.142-28.354 7.248-35.088 13.461-103.493 136.335-314.306 414.184-329.617 434.893Z" fill="#EB5BE5"/></g><path d="M573.957 685.951c25.518 4.97 58.126 42.108 71.239 60.056 11.909-1.656 26.937-21.399 32.962-31.063 45.366-62.473 141.203-194.46 161.618-222.625 20.415-28.164 65.215-63.508 85.063-77.659 72.303-42.247 130.071-18.984 149.921-2.071l58.48 85.943c1.7-13.254-4.25-27.612-7.44-33.135L969.497 244.844c-5.671-7.938-26.37-27.543-63.797-42.454-37.428-14.91-61.671 6.213-69.113 18.638l-331.744 447.32c-20.415 28.164 8.507 69.031 25.519 85.943 0-5.799 29.063-47.976 43.595-68.34Z" fill="#EB5BE5" style="mix-blend-mode:hard-light" opacity=".4"/><g style="mix-blend-mode:hard-light" opacity=".4" filter="url(#b)"><path d="M573.957 685.951c25.518 4.97 58.126 42.108 71.239 60.056 11.909-1.656 26.937-21.399 32.962-31.063 45.366-62.473 141.203-194.46 161.618-222.625 20.415-28.164 65.215-63.508 85.063-77.659 72.303-42.247 130.071-18.984 149.921-2.071l58.48 85.943c1.7-13.254-4.25-27.612-7.44-33.135L969.497 244.844c-5.671-7.938-26.37-27.543-63.797-42.454-37.428-14.91-61.671 6.213-69.113 18.638l-331.744 447.32c-20.415 28.164 8.507 69.031 25.519 85.943 0-5.799 29.063-47.976 43.595-68.34Z" fill="#EB5BE5"/></g><defs><filter id="a" x=".993" y=".357" width="915.393" height="907.351" filterUnits="userSpaceOnUse" color-interpolation-filters="sRGB"><feFlood flood-opacity="0" result="BackgroundImageFix"/><feBlend in="SourceGraphic" in2="BackgroundImageFix" result="shape"/><feGaussianBlur stdDeviation="81.368" result="effect1_foregroundBlur_248_8716"/></filter><filter id="b" x="335.086" y="34.526" width="961.192" height="882.502" filterUnits="userSpaceOnUse" color-interpolation-filters="sRGB"><feFlood flood-opacity="0" result="BackgroundImageFix"/><feBlend in="SourceGraphic" in2="BackgroundImageFix" result="shape"/><feGaussianBlur stdDeviation="81.368" result="effect1_foregroundBlur_248_8716"/></filter></defs></svg>