<svg width="1276" height="1216" viewBox="0 0 1276 1216" fill="none" xmlns="http://www.w3.org/2000/svg"><path d="M170.166 644.455c-14.991 19.392-2.776 45.571 5.205 56.237 14.157-3.103 45.457-44.602 59.336-64.963 3.332 7.757 38.864 51.712 56.214 72.72l6.246-7.757c-11.451-12.282-36.643-41.693-45.804-61.085-9.16-19.392.347-31.997 6.246-35.875 25.817-12.411 77.381 24.563 99.936 44.601l47.886 60.116 335.202-435.35c-25.817-41.887-54.479-70.458-65.583-79.507-2.429-1.616-13.95-8.339-40.599-22.301-26.65-13.962-52.05-5.818-61.419 0l-45.804 53.328c-11.659-3.878-27.76 6.787-34.353 12.605-101.324 127.664-307.719 387.839-322.709 407.231Z" fill="#EB5BE5" style="mix-blend-mode:hard-light" opacity=".4"/><g style="mix-blend-mode:hard-light" opacity=".4" filter="url(#a)"><path d="M170.166 644.455c-14.991 19.392-2.776 45.571 5.205 56.237 14.157-3.103 45.457-44.602 59.336-64.963 3.332 7.757 38.864 51.712 56.214 72.72l6.246-7.757c-11.451-12.282-36.643-41.693-45.804-61.085-9.16-19.392.347-31.997 6.246-35.875 25.817-12.411 77.381 24.563 99.936 44.601l47.886 60.116 335.202-435.35c-25.817-41.887-54.479-70.458-65.583-79.507-2.429-1.616-13.95-8.339-40.599-22.301-26.65-13.962-52.05-5.818-61.419 0l-45.804 53.328c-11.659-3.878-27.76 6.787-34.353 12.605-101.324 127.664-307.719 387.839-322.709 407.231Z" fill="#EB5BE5"/></g><path d="M564.704 653.182c24.984 4.654 56.908 39.43 69.747 56.236 11.66-1.551 26.372-20.038 32.271-29.088 44.416-58.499 138.245-182.09 158.232-208.463 19.987-26.373 63.848-59.469 83.28-72.72 70.787-39.56 127.346-17.776 146.776-1.939l57.26 80.476c1.66-12.411-4.16-25.856-7.29-31.027L951.956 240.133c-5.552-7.434-25.817-25.792-62.46-39.754-36.644-13.962-60.378 5.818-67.665 17.453L497.04 636.698c-19.988 26.373 8.328 64.64 24.983 80.477 0-5.43 28.454-44.925 42.681-63.993Z" fill="#EB5BE5" style="mix-blend-mode:hard-light" opacity=".4"/><g style="mix-blend-mode:hard-light" opacity=".4" filter="url(#b)"><path d="M564.704 653.182c24.984 4.654 56.908 39.43 69.747 56.236 11.66-1.551 26.372-20.038 32.271-29.088 44.416-58.499 138.245-182.09 158.232-208.463 19.987-26.373 63.848-59.469 83.28-72.72 70.787-39.56 127.346-17.776 146.776-1.939l57.26 80.476c1.66-12.411-4.16-25.856-7.29-31.027L951.956 240.133c-5.552-7.434-25.817-25.792-62.46-39.754-36.644-13.962-60.378 5.818-67.665 17.453L497.04 636.698c-19.988 26.373 8.328 64.64 24.983 80.477 0-5.43 28.454-44.925 42.681-63.993Z" fill="#EB5BE5"/></g><defs><filter id="a" x=".338" y=".846" width="903.031" height="870.339" filterUnits="userSpaceOnUse" color-interpolation-filters="sRGB"><feFlood flood-opacity="0" result="BackgroundImageFix"/><feBlend in="SourceGraphic" in2="BackgroundImageFix" result="shape"/><feGaussianBlur stdDeviation="81.368" result="effect1_foregroundBlur_248_8716"/></filter><filter id="b" x="327.429" y="32.841" width="947.87" height="847.071" filterUnits="userSpaceOnUse" color-interpolation-filters="sRGB"><feFlood flood-opacity="0" result="BackgroundImageFix"/><feBlend in="SourceGraphic" in2="BackgroundImageFix" result="shape"/><feGaussianBlur stdDeviation="81.368" result="effect1_foregroundBlur_248_8716"/></filter></defs></svg>