<svg width="33" height="32" viewBox="0 0 33 32" fill="none" xmlns="http://www.w3.org/2000/svg"><path d="M31.85 19.87c-2.136 8.572-10.818 13.788-19.39 11.651C3.89 29.384-1.326 20.702.812 12.131 2.948 3.56 11.63-1.659 20.2.48c8.572 2.137 13.788 10.82 11.65 19.392Z" fill="#F3BA2F"/><path fill-rule="evenodd" clip-rule="evenodd" d="m16.333 10.155-4.143 4.143-2.41-2.411 6.553-6.554 6.555 6.556-2.41 2.41-4.145-4.144Zm-8.256 3.434L5.666 16l2.41 2.41L10.488 16l-2.41-2.411Zm4.113 4.114 4.143 4.142 4.145-4.144 2.412 2.409-.002.001-6.555 6.556-6.554-6.554-.003-.003 2.414-2.407Zm12.399-4.113-2.411 2.411 2.41 2.41L27 16.002l-2.41-2.41Z" fill="#fff"/><path d="M18.778 15.999h.001l-2.446-2.446-1.808 1.807-.207.208-.429.428-.003.004.003.003 2.444 2.445L18.78 16l.002-.001-.003-.001" fill="#fff"/></svg>