<svg width="32" height="32" viewBox="0 0 32 32" fill="none" xmlns="http://www.w3.org/2000/svg"><path d="M31.522 19.87c-2.137 8.572-10.819 13.788-19.391 11.651C3.56 29.384-1.655 20.702.483 12.131 2.62 3.56 11.301-1.659 19.87.48c8.572 2.137 13.788 10.82 11.651 19.392Z" fill="#F7931A"/><path fill-rule="evenodd" clip-rule="evenodd" d="M23.057 13.72c.319-2.129-1.302-3.273-3.519-4.037l.72-2.884L18.5 6.36l-.7 2.809a72.783 72.783 0 0 0-1.406-.331l.705-2.827-1.755-.438-.72 2.884a58.054 58.054 0 0 1-1.12-.264l.002-.009-2.422-.605-.467 1.876s1.303.298 1.275.317c.711.177.84.648.819 1.02l-.82 3.287c.05.012.113.03.183.058l-.05-.013-.136-.033-1.148 4.603c-.086.216-.307.54-.804.417.017.026-1.276-.318-1.276-.318l-.872 2.01 2.285.57c.25.062.497.126.742.19l.51.132-.727 2.917 1.754.438.72-2.886c.478.13.943.25 1.399.363l-.718 2.873 1.756.437.727-2.912c2.994.567 5.245.338 6.192-2.37.764-2.18-.038-3.438-1.613-4.258 1.148-.264 2.012-1.019 2.242-2.577Zm-4.011 5.626c-.498 2-3.629 1.173-5.061.794-.13-.034-.244-.064-.343-.088l.964-3.865c.12.03.266.062.432.1 1.482.332 4.518 1.014 4.008 3.059Zm-3.71-4.853c1.194.319 3.8 1.014 4.253-.804.463-1.86-2.069-2.42-3.305-2.694-.14-.03-.262-.058-.362-.083l-.875 3.505.288.076Z" fill="#fff"/></svg>