<svg width="33" height="32" viewBox="0 0 33 32" fill="none" xmlns="http://www.w3.org/2000/svg"><path d="M32.185 19.87c-2.137 8.572-10.819 13.788-19.391 11.651-8.57-2.137-13.786-10.819-11.648-19.39C3.282 3.56 11.964-1.659 20.534.48c8.572 2.137 13.788 10.82 11.65 19.392Z" fill="#50AF95"/><path fill-rule="evenodd" clip-rule="evenodd" d="M18.692 17.814c-.113.008-.698.043-2.002.043-1.037 0-1.773-.03-2.031-.043-4.008-.176-7-.874-7-1.71 0-.835 2.992-1.531 7-1.71v2.725c.262.019 1.012.063 2.05.063 1.244 0 1.867-.052 1.98-.062v-2.725c3.998.179 6.983.876 6.983 1.71 0 .833-2.984 1.53-6.984 1.708h.004Zm0-3.7v-2.44h5.581V7.956H9.077v3.72h5.58v2.438c-4.535.208-7.946 1.106-7.946 2.183 0 1.077 3.41 1.974 7.947 2.184v7.815h4.033v-7.818c4.525-.209 7.93-1.106 7.93-2.182 0-1.076-3.402-1.973-7.93-2.183v.002Z" fill="#fff"/></svg>