<svg width="33" height="32" viewBox="0 0 33 32" fill="none" xmlns="http://www.w3.org/2000/svg"><path d="M16.333 32c8.867 0 16-7.133 16-16s-7.133-16-16-16-16 7.133-16 16 7.133 16 16 16Z" fill="#2775CA"/><path d="M20.733 18.533c0-2.333-1.4-3.133-4.2-3.466-2-.267-2.4-.8-2.4-1.734 0-.933.667-1.533 2-1.533 1.2 0 1.867.4 2.2 1.4.067.2.267.333.467.333h1.066c.267 0 .467-.2.467-.466V13a3.33 3.33 0 0 0-3-2.733v-1.6c0-.267-.2-.467-.533-.534h-1c-.267 0-.467.2-.534.534V10.2c-2 .267-3.266 1.6-3.266 3.267 0 2.2 1.333 3.066 4.133 3.4 1.867.333 2.467.733 2.467 1.8 0 1.066-.934 1.8-2.2 1.8-1.734 0-2.334-.734-2.534-1.734-.066-.266-.266-.4-.466-.4h-1.134c-.266 0-.466.2-.466.467v.067c.266 1.666 1.333 2.866 3.533 3.2v1.6c0 .266.2.466.533.533h1c.267 0 .467-.2.534-.533v-1.6c2-.334 3.333-1.734 3.333-3.534Z" fill="#fff"/><path fill-rule="evenodd" clip-rule="evenodd" d="M7 12.733c-1.933 5.134.733 10.934 5.933 12.8.2.134.4.4.4.6v.934c0 .133 0 .2-.066.266-.067.267-.334.4-.6.267a11.993 11.993 0 0 1-7.8-7.8c-2-6.333 1.466-13.067 7.8-15.067.066-.066.2-.066.266-.066.267.066.4.266.4.533v.933c0 .334-.133.534-.4.667C10.2 7.8 8 9.933 7 12.733ZM19.4 5c.067-.267.333-.4.6-.267 3.667 1.2 6.6 4.067 7.8 7.867 2 6.333-1.467 13.067-7.8 15.067-.067.066-.2.066-.267.066-.266-.066-.4-.266-.4-.533v-.933c0-.334.134-.534.4-.667 2.734-1 4.934-3.133 5.934-5.933 1.933-5.134-.734-10.934-5.934-12.8-.2-.134-.4-.4-.4-.667v-.933c0-.134 0-.2.067-.267Z" fill="#fff"/></svg>