<svg width="942" height="848" viewBox="0 0 942 848" fill="none" xmlns="http://www.w3.org/2000/svg"><g clip-path="url(#a)"><g opacity=".1" filter="url(#b)"><circle cx="471.5" cy="415.053" r="406" fill="url(#c)"/></g><path d="m678.631 237.531.006.006 70.101 77.703a97.679 97.679 0 0 1 20.278 95.906l-32.65 99.429-.003.008-32.242 99.561a97.679 97.679 0 0 1-72.918 65.514L528.77 697.097l-.008.001-102.344 21.859a97.68 97.68 0 0 1-93.196-30.393l-69.782-77.99-.006-.006-70.102-77.703a97.679 97.679 0 0 1-20.277-95.906l32.65-99.429.002-.008 32.243-99.561a97.676 97.676 0 0 1 72.918-65.514L413.3 151.008l.009-.001 102.344-21.859a97.681 97.681 0 0 1 93.196 30.393l69.782 77.99Z" stroke="#1E1E1E" stroke-width="4.255"/><path d="m763.154 161.59.006.007 114.098 126.47a97.679 97.679 0 0 1 20.277 95.906l-53.141 161.831-.003.008-52.478 162.047a97.678 97.678 0 0 1-72.918 65.514l-166.72 34.893-.009.002-166.575 35.576a97.678 97.678 0 0 1-93.196-30.392L178.917 686.515l-.006-.007-114.098-126.47a97.68 97.68 0 0 1-20.278-95.906l53.142-161.831.003-.008 52.477-162.047a97.68 97.68 0 0 1 72.919-65.514l166.72-34.893.008-.002L556.38 4.261a97.68 97.68 0 0 1 93.196 30.392L763.154 161.59Z" stroke="#1E1E1E" stroke-width="4.255"/><path d="M301.284 193.235c0 22.144-17.796 40.065-39.71 40.065-21.915 0-39.711-17.921-39.711-40.065 0-22.145 17.796-40.065 39.711-40.065 21.914 0 39.71 17.92 39.71 40.065Z" fill="#151515" stroke="#1E1E1E" stroke-width="4.255"/><path d="M303.412 193.235c0 23.302-18.732 42.192-41.838 42.192-23.107 0-41.838-18.89-41.838-42.192 0-23.303 18.731-42.193 41.838-42.193 23.106 0 41.838 18.89 41.838 42.193Z" fill="#151515"/><path fill-rule="evenodd" clip-rule="evenodd" d="M248.337 173.97h26.473a5.673 5.673 0 0 1 5.673 5.673v26.474a5.673 5.673 0 0 1-5.673 5.673h-26.473a5.673 5.673 0 0 1-5.673-5.673v-26.474a5.673 5.673 0 0 1 5.673-5.673Zm0 3.782a1.89 1.89 0 0 0-1.891 1.891v26.474a1.89 1.89 0 0 0 1.891 1.891h26.473a1.89 1.89 0 0 0 1.891-1.891v-26.474a1.89 1.89 0 0 0-1.891-1.891h-26.473Zm10.4 13.237h4.728a1.89 1.89 0 1 0 0-3.782h-4.728v3.782Zm8.956 1.891a5.673 5.673 0 0 0-4.228-9.455v-1.891a1.891 1.891 0 0 0-3.782 0v1.891h-2.837a1.891 1.891 0 0 0-1.891 1.891v15.128c0 1.044.847 1.891 1.891 1.891h2.837v1.891a1.89 1.89 0 1 0 3.782 0v-1.891a5.673 5.673 0 0 0 4.228-9.455Zm-4.228 1.891h-4.728v3.782h4.728a1.89 1.89 0 1 0 0-3.782Z" fill="#353535"/><path d="M82.167 503.829c0 22.144-17.796 40.065-39.711 40.065s-39.71-17.921-39.71-40.065c0-22.145 17.795-40.066 39.71-40.066s39.71 17.921 39.71 40.066ZM938.072 335.058c0 22.145-17.796 40.066-39.71 40.066-21.915 0-39.711-17.921-39.711-40.066 0-22.144 17.796-40.065 39.711-40.065 21.914 0 39.71 17.921 39.71 40.065Z" fill="#151515" stroke="#1E1E1E" stroke-width="4.255"/><path fill-rule="evenodd" clip-rule="evenodd" d="M917.225 325.459a1.89 1.89 0 1 1-3.782-.001l.001-2.489-13.743 13.779a1.89 1.89 0 0 1-2.584.088l-6.233-5.454-8.205 8.205a1.89 1.89 0 0 1-2.674-2.675l9.456-9.455a1.891 1.891 0 0 1 2.582-.086l6.231 5.452 12.505-12.538h-2.96a1.89 1.89 0 1 1 0-3.782h7.517a1.891 1.891 0 0 1 1.891 1.892l-.002 7.064Zm-9.408 11.845a1.89 1.89 0 0 1 1.891-1.891h5.673a1.891 1.891 0 0 1 0 3.782h-5.673a1.89 1.89 0 0 1-1.891-1.891Zm-12.292 5.673a1.891 1.891 0 0 0 0 3.782h5.673a1.89 1.89 0 1 0 0-3.782h-5.673Zm-16.073 9.455a1.89 1.89 0 0 1 1.891-1.891h5.673a1.89 1.89 0 1 1 0 3.782h-5.673a1.89 1.89 0 0 1-1.891-1.891Zm14.182 0a1.89 1.89 0 0 1 1.891-1.891h5.673a1.89 1.89 0 1 1 0 3.782h-5.673a1.891 1.891 0 0 1-1.891-1.891Zm14.183 0a1.89 1.89 0 0 1 1.891-1.891h5.673a1.89 1.89 0 1 1 0 3.782h-5.673a1.89 1.89 0 0 1-1.891-1.891Zm1.891-9.455a1.89 1.89 0 1 0 0 3.782h5.673a1.891 1.891 0 0 0 0-3.782h-5.673Z" fill="#353535"/><path d="M721.791 642.816c0 22.144-17.796 40.065-39.71 40.065-21.915 0-39.711-17.921-39.711-40.065 0-22.145 17.796-40.065 39.711-40.065 21.914 0 39.71 17.92 39.71 40.065Z" fill="#151515" stroke="#1E1E1E" stroke-width="4.255"/><path fill-rule="evenodd" clip-rule="evenodd" d="M682.081 628.042c.622 0 1.204.307 1.557.819l6.906 10.031a16.347 16.347 0 0 1 2.883 9.269c0 5.599-4.539 10.137-10.137 10.137h-2.418c-5.599 0-10.137-4.538-10.137-10.137 0-3.31 1.005-6.543 2.882-9.269l6.906-10.031a1.893 1.893 0 0 1 1.558-.819Zm0 5.226-5.349 7.768a12.565 12.565 0 0 0-2.215 7.125 6.355 6.355 0 0 0 6.355 6.355h2.418a6.355 6.355 0 0 0 6.355-6.355c0-2.544-.773-5.029-2.216-7.125l-5.348-7.768ZM55.693 485.213H29.219a5.672 5.672 0 0 0-5.673 5.672v26.471a5.673 5.673 0 0 0 5.673 5.672h26.474a5.673 5.673 0 0 0 5.673-5.672v-26.471a5.672 5.672 0 0 0-5.673-5.672Zm-28.365 5.672c0-1.044.847-1.891 1.891-1.891h26.474c1.044 0 1.89.847 1.89 1.891v26.471a1.89 1.89 0 0 1-1.89 1.89H29.219a1.89 1.89 0 0 1-1.89-1.89v-26.471Zm13.237 3.782a5.672 5.672 0 1 0 0 11.344h3.782a1.891 1.891 0 0 1 0 3.782h-6.619a1.89 1.89 0 1 0 0 3.781h2.837v1.891a1.891 1.891 0 0 0 3.782 0v-1.891a5.672 5.672 0 1 0 0-11.344h-3.782a1.891 1.891 0 0 1 0-3.782h6.618a1.89 1.89 0 1 0 0-3.781h-2.836v-1.891a1.891 1.891 0 0 0-3.782 0v1.891Z" fill="#353535"/><path opacity=".2" fill-rule="evenodd" clip-rule="evenodd" d="M42.456 545.953c20.833 0 38.11-15.354 41.307-35.451H79.45c-3.151 17.759-18.54 31.197-36.993 31.197v4.254ZM682.259 684.923c-20.832 0-38.109-15.354-41.307-35.451h4.314c3.152 17.759 18.541 31.197 36.993 31.197v4.254ZM898.362 377.204c20.833 0 38.109-15.354 41.307-35.451h-4.314c-3.152 17.759-18.541 31.197-36.993 31.197v4.254Z" fill="#EB5BE5"/><path fill-rule="evenodd" clip-rule="evenodd" d="M261.574 231.173c20.722 0 37.583-16.952 37.583-37.938 0-20.987-16.861-37.938-37.583-37.938-20.723 0-37.584 16.951-37.584 37.938 0 20.986 16.861 37.938 37.584 37.938Zm0 4.254c23.106 0 41.838-18.89 41.838-42.192 0-23.303-18.732-42.193-41.838-42.193-23.107 0-41.838 18.89-41.838 42.193 0 23.302 18.731 42.192 41.838 42.192Z" fill="#1E1E1E"/><path opacity=".2" fill-rule="evenodd" clip-rule="evenodd" d="M261.574 151.042c-20.833 0-38.11 15.356-41.308 35.456h4.314c3.152-17.761 18.541-31.201 36.994-31.201v-4.255Z" fill="#EB5BE5"/></g><defs><radialGradient id="c" cx="0" cy="0" r="1" gradientUnits="userSpaceOnUse" gradientTransform="matrix(0 406 -406 0 471.5 415.053)"><stop stop-color="#EB5BE5"/><stop offset="1" stop-color="#EB5BE5" stop-opacity="0"/></radialGradient><clipPath id="a"><path fill="#fff" transform="translate(.5)" d="M0 0h941v848H0z"/></clipPath><filter id="b" x="11.5" y="-44.947" width="920" height="920" filterUnits="userSpaceOnUse" color-interpolation-filters="sRGB"><feFlood flood-opacity="0" result="BackgroundImageFix"/><feBlend in="SourceGraphic" in2="BackgroundImageFix" result="shape"/><feGaussianBlur stdDeviation="27" result="effect1_foregroundBlur_248_8211"/></filter></defs></svg>