<svg width="892" height="952" viewBox="0 0 892 952" fill="none" xmlns="http://www.w3.org/2000/svg"><g clip-path="url(#a)"><path d="m294 593.5 5.5-40c8.4-1.6 37.5 15.333 51 24 26-27.6 45.167-69.5 51.5-87l-54-30L442 334l47-27h39l33.5 23.5 10.5 28-7.5 55.5c-33.667 48-102 145.6-106 152-4 6.4-1.667 12.667 0 15l-29 43-48.5 27.5-72 3-15-61Z" fill="#EB5BE5" style="mix-blend-mode:hard-light" opacity=".4"/><g style="mix-blend-mode:hard-light" opacity=".4" filter="url(#b)"><path d="m294 593.5 5.5-40c8.4-1.6 37.5 15.333 51 24 26-27.6 45.167-69.5 51.5-87l-54-30L442 334l47-27h39l33.5 23.5 10.5 28-7.5 55.5c-33.667 48-102 145.6-106 152-4 6.4-1.667 12.667 0 15l-29 43-48.5 27.5-72 3-15-61Z" fill="#EB5BE5"/></g><path d="M223.209 764.389 309 653.5M223.209 764.389H677" stroke="#9A9A9A" stroke-width="2"/><path d="M517.512 793h-1.552l2.416-4.496a3.958 3.958 0 0 1-.992-.384 2.884 2.884 0 0 1-.784-.656 3.008 3.008 0 0 1-.528-.944 3.884 3.884 0 0 1-.192-1.264c0-.64.096-1.184.288-1.632.192-.448.464-.816.816-1.104a3.416 3.416 0 0 1 1.296-.624 6.464 6.464 0 0 1 1.696-.208h4.192V793h-1.392v-4.24h-3.008l-2.256 4.24Zm5.264-5.504v-4.544h-2.816c-.907 0-1.579.187-2.016.56-.437.373-.656.939-.656 1.696 0 .48.08.864.24 1.152.171.288.4.517.688.688.299.171.629.288.992.352.373.064.768.096 1.184.096h2.384Zm4.819-1.072c.01-.309.016-.619.016-.928v-.928h5.984v7.248h1.104v3.776h-1.312V793h-6.16v2.592h-1.312v-3.776c.426 0 .762-.192 1.008-.576.149-.213.266-.517.352-.912.085-.405.149-.832.192-1.28.053-.491.085-.976.095-1.456.022-.491.033-.88.033-1.168Zm4.64-.656h-3.328c-.011.448-.022.949-.032 1.504a33.372 33.372 0 0 1-.064 1.552c-.011.213-.027.448-.048.704a7.302 7.302 0 0 1-.112.768 4.537 4.537 0 0 1-.208.784 2.658 2.658 0 0 1-.368.736h4.16v-6.048Zm5.244 10.272h-1.36v-11.472h1.296l.064 1.296c.288-.459.677-.8 1.168-1.024a3.939 3.939 0 0 1 1.616-.368c.651 0 1.2.112 1.648.336.459.213.837.517 1.136.912.309.384.539.843.688 1.376.149.523.224 1.088.224 1.696 0 .619-.075 1.189-.224 1.712a3.804 3.804 0 0 1-.688 1.36 3.3 3.3 0 0 1-1.168.912c-.469.213-1.029.32-1.68.32-.64 0-1.184-.101-1.632-.304a3.009 3.009 0 0 1-1.088-.8v4.048Zm2.608-4.144c.459 0 .843-.08 1.152-.24.32-.171.576-.395.768-.672.203-.288.347-.619.432-.992.096-.373.149-.773.16-1.2 0-.427-.048-.827-.144-1.2a2.611 2.611 0 0 0-.432-.992 2.11 2.11 0 0 0-.8-.656c-.32-.171-.709-.256-1.168-.256-.544 0-1.013.149-1.408.448a2.743 2.743 0 0 0-.896 1.104 2.81 2.81 0 0 0-.24.768 4.828 4.828 0 0 0-.064.8c0 .32.021.619.064.896.043.267.123.523.24.768.203.405.496.747.88 1.024.395.267.88.4 1.456.4Zm9.338-7.424c.672 0 1.253.107 1.744.32.49.213.901.512 1.232.896a3.6 3.6 0 0 1 .752 1.376c.17.523.256 1.099.256 1.728s-.086 1.211-.256 1.744c-.16.523-.411.976-.752 1.36a3.44 3.44 0 0 1-1.248.88c-.502.213-1.088.32-1.76.32-.672 0-1.259-.107-1.76-.32a3.619 3.619 0 0 1-1.248-.88 3.905 3.905 0 0 1-.752-1.36 6.047 6.047 0 0 1-.24-1.744c0-.629.08-1.205.24-1.728a3.89 3.89 0 0 1 .752-1.376 3.483 3.483 0 0 1 1.264-.896c.501-.213 1.093-.32 1.776-.32Zm-.032 7.424c.458 0 .853-.08 1.184-.24.341-.16.618-.379.832-.656.224-.288.384-.619.48-.992.106-.373.16-.779.16-1.216 0-.427-.054-.827-.16-1.2a2.53 2.53 0 0 0-.48-.992 2.159 2.159 0 0 0-.832-.672c-.331-.16-.726-.24-1.184-.24-.459 0-.854.08-1.184.24-.331.16-.608.384-.832.672a2.839 2.839 0 0 0-.48.992 4.801 4.801 0 0 0-.144 1.2c0 .437.048.843.144 1.216.106.373.266.704.48.992.224.277.501.496.832.656.33.16.725.24 1.184.24Zm16.372-7.328v1.2h-2.896V793h-1.36v-7.232h-2.896v-1.2h7.152Zm4.925-.096c.672 0 1.254.107 1.744.32.491.213.902.512 1.232.896.342.384.592.843.752 1.376.171.523.256 1.099.256 1.728s-.085 1.211-.256 1.744c-.16.523-.41.976-.752 1.36-.33.373-.746.667-1.248.88-.501.213-1.088.32-1.76.32-.672 0-1.258-.107-1.76-.32a3.638 3.638 0 0 1-1.248-.88 3.937 3.937 0 0 1-.752-1.36 6.047 6.047 0 0 1-.24-1.744c0-.629.08-1.205.24-1.728.171-.533.422-.992.752-1.376a3.5 3.5 0 0 1 1.264-.896c.502-.213 1.094-.32 1.776-.32Zm-.032 7.424c.459 0 .854-.08 1.184-.24a2.21 2.21 0 0 0 .832-.656c.224-.288.384-.619.48-.992a4.4 4.4 0 0 0 .16-1.216c0-.427-.053-.827-.16-1.2a2.53 2.53 0 0 0-.48-.992 2.144 2.144 0 0 0-.832-.672c-.33-.16-.725-.24-1.184-.24-.458 0-.853.08-1.184.24-.33.16-.608.384-.832.672a2.874 2.874 0 0 0-.48.992 4.801 4.801 0 0 0-.144 1.2c0 .437.048.843.144 1.216.107.373.267.704.48.992.224.277.502.496.832.656.331.16.726.24 1.184.24Zm7.196 4.144h-1.36v-11.472h1.296l.064 1.296c.288-.459.677-.8 1.168-1.024a3.939 3.939 0 0 1 1.616-.368c.651 0 1.2.112 1.648.336.459.213.837.517 1.136.912.309.384.539.843.688 1.376.149.523.224 1.088.224 1.696 0 .619-.075 1.189-.224 1.712a3.804 3.804 0 0 1-.688 1.36 3.3 3.3 0 0 1-1.168.912c-.469.213-1.029.32-1.68.32-.64 0-1.184-.101-1.632-.304a3.009 3.009 0 0 1-1.088-.8v4.048Zm2.608-4.144c.459 0 .843-.08 1.152-.24.32-.171.576-.395.768-.672.203-.288.347-.619.432-.992.096-.373.149-.773.16-1.2 0-.427-.048-.827-.144-1.2a2.611 2.611 0 0 0-.432-.992 2.11 2.11 0 0 0-.8-.656c-.32-.171-.709-.256-1.168-.256-.544 0-1.013.149-1.408.448a2.743 2.743 0 0 0-.896 1.104 2.81 2.81 0 0 0-.24.768 4.828 4.828 0 0 0-.064.8c0 .32.021.619.064.896.043.267.123.523.24.768.203.405.496.747.88 1.024.395.267.88.4 1.456.4Zm5.626 1.104v-8.432h5.824v1.2h-4.464V793h-1.36Zm10.821-8.528c.672 0 1.253.107 1.744.32.491.213.901.512 1.232.896a3.6 3.6 0 0 1 .752 1.376c.171.523.256 1.099.256 1.728s-.085 1.211-.256 1.744c-.16.523-.411.976-.752 1.36a3.44 3.44 0 0 1-1.248.88c-.501.213-1.088.32-1.76.32-.672 0-1.259-.107-1.76-.32a3.619 3.619 0 0 1-1.248-.88 3.92 3.92 0 0 1-.752-1.36 6.047 6.047 0 0 1-.24-1.744c0-.629.08-1.205.24-1.728.171-.533.421-.992.752-1.376a3.491 3.491 0 0 1 1.264-.896c.501-.213 1.093-.32 1.776-.32Zm-.032 7.424c.459 0 .853-.08 1.184-.24.341-.16.619-.379.832-.656.224-.288.384-.619.48-.992a4.4 4.4 0 0 0 .16-1.216c0-.427-.053-.827-.16-1.2a2.53 2.53 0 0 0-.48-.992 2.152 2.152 0 0 0-.832-.672c-.331-.16-.725-.24-1.184-.24-.459 0-.853.08-1.184.24-.331.16-.608.384-.832.672a2.874 2.874 0 0 0-.48.992 4.801 4.801 0 0 0-.144 1.2c0 .437.048.843.144 1.216.107.373.267.704.48.992.224.277.501.496.832.656.331.16.725.24 1.184.24Zm5.836-7.328h3.264c.544 0 1.008.037 1.392.112.394.075.725.208.992.4.234.16.416.373.544.64.138.267.208.581.208.944 0 .843-.379 1.445-1.136 1.808.576.128.992.379 1.248.752s.384.8.384 1.28c-.011.448-.086.816-.224 1.104a2.29 2.29 0 0 1-.592.736 2.74 2.74 0 0 1-.912.48 4.01 4.01 0 0 1-1.232.176h-3.936v-8.432Zm1.392 1.2v2.4h1.168c.266 0 .538-.005.816-.016.277-.021.522-.069.736-.144.266-.085.49-.224.672-.416.181-.192.277-.421.288-.688 0-.309-.07-.533-.208-.672a1.064 1.064 0 0 0-.48-.32 1.969 1.969 0 0 0-.624-.128 12.746 12.746 0 0 0-.624-.016h-1.744Zm0 6.048h2.224c.245 0 .48-.016.704-.048.234-.032.437-.091.608-.176.17-.096.309-.224.416-.384a1.18 1.18 0 0 0 .176-.608c0-.32-.075-.571-.224-.752a1.248 1.248 0 0 0-.608-.416 2.938 2.938 0 0 0-.72-.112 20.24 20.24 0 0 0-.832-.016l-1.744.016v2.496Zm11.07-7.344c.672 0 1.253.107 1.744.32.49.213.901.512 1.232.896a3.6 3.6 0 0 1 .752 1.376c.17.523.256 1.099.256 1.728s-.086 1.211-.256 1.744c-.16.523-.411.976-.752 1.36a3.44 3.44 0 0 1-1.248.88c-.502.213-1.088.32-1.76.32-.672 0-1.259-.107-1.76-.32a3.619 3.619 0 0 1-1.248-.88 3.905 3.905 0 0 1-.752-1.36 6.047 6.047 0 0 1-.24-1.744c0-.629.08-1.205.24-1.728a3.89 3.89 0 0 1 .752-1.376 3.483 3.483 0 0 1 1.264-.896c.501-.213 1.093-.32 1.776-.32Zm-.032 7.424c.458 0 .853-.08 1.184-.24.341-.16.618-.379.832-.656.224-.288.384-.619.48-.992.106-.373.16-.779.16-1.216 0-.427-.054-.827-.16-1.2a2.53 2.53 0 0 0-.48-.992 2.159 2.159 0 0 0-.832-.672c-.331-.16-.726-.24-1.184-.24-.459 0-.854.08-1.184.24-.331.16-.608.384-.832.672a2.839 2.839 0 0 0-.48.992 4.801 4.801 0 0 0-.144 1.2c0 .437.048.843.144 1.216.106.373.266.704.48.992.224.277.501.496.832.656.33.16.725.24 1.184.24Zm5.835 1.104v-8.432h5.824v1.2h-4.464V793h-1.36Zm10.822-8.528c.672 0 1.253.107 1.744.32.49.213.901.512 1.232.896a3.6 3.6 0 0 1 .752 1.376c.17.523.256 1.099.256 1.728s-.086 1.211-.256 1.744c-.16.523-.411.976-.752 1.36a3.44 3.44 0 0 1-1.248.88c-.502.213-1.088.32-1.76.32-.672 0-1.259-.107-1.76-.32a3.619 3.619 0 0 1-1.248-.88 3.905 3.905 0 0 1-.752-1.36 6.047 6.047 0 0 1-.24-1.744c0-.629.08-1.205.24-1.728a3.89 3.89 0 0 1 .752-1.376 3.483 3.483 0 0 1 1.264-.896c.501-.213 1.093-.32 1.776-.32Zm-.032 7.424c.458 0 .853-.08 1.184-.24.341-.16.618-.379.832-.656.224-.288.384-.619.48-.992.106-.373.16-.779.16-1.216 0-.427-.054-.827-.16-1.2a2.53 2.53 0 0 0-.48-.992 2.159 2.159 0 0 0-.832-.672c-.331-.16-.726-.24-1.184-.24-.459 0-.854.08-1.184.24-.331.16-.608.384-.832.672a2.839 2.839 0 0 0-.48.992 4.801 4.801 0 0 0-.144 1.2c0 .437.048.843.144 1.216.106.373.266.704.48.992.224.277.501.496.832.656.33.16.725.24 1.184.24Zm11.172-5.424c.16-.224.346-.411.56-.56.213-.16.442-.293.688-.4.256-.107.512-.181.768-.224.266-.053.522-.08.768-.08.576 0 1.082.091 1.52.272.448.181.821.443 1.12.784.309.331.544.731.704 1.2.16.469.24.992.24 1.568 0 .576-.086 1.115-.256 1.616a3.675 3.675 0 0 1-.752 1.28c-.32.363-.72.651-1.2.864-.47.203-1.014.304-1.632.304-.704 0-1.296-.123-1.776-.368a3.35 3.35 0 0 1-1.168-1.008 4.556 4.556 0 0 1-.64-1.52 8.111 8.111 0 0 1-.224-1.728c-.022-.171-.032-.512-.032-1.024.01-.523.037-.992.08-1.408.042-.427.112-.837.208-1.232a4.2 4.2 0 0 1 .432-1.072c.288-.512.65-.891 1.088-1.136.448-.245.96-.416 1.536-.512.181-.032.586-.091 1.216-.176.64-.096 1.077-.16 1.312-.192.202-.021.421-.048.656-.08.245-.043.485-.085.72-.128v1.248a4.52 4.52 0 0 1-.592.144c-.235.032-.502.064-.8.096a54.28 54.28 0 0 1-.672.096c-.224.021-.459.048-.704.08-.235.021-.598.069-1.088.144-.363.053-.662.155-.896.304a2.221 2.221 0 0 0-.592.592 3.145 3.145 0 0 0-.448 1.088 6.699 6.699 0 0 0-.144 1.168Zm2.56 5.424c.394 0 .741-.075 1.04-.224.309-.149.565-.352.768-.608.213-.256.373-.555.48-.896.106-.341.16-.704.16-1.088 0-.373-.059-.72-.176-1.04a2.429 2.429 0 0 0-.464-.848 1.999 1.999 0 0 0-.736-.56c-.288-.139-.64-.208-1.056-.208a2.576 2.576 0 0 0-1.024.224 2.186 2.186 0 0 0-.768.592 2.416 2.416 0 0 0-.48.864c-.107.32-.166.656-.176 1.008 0 .373.048.731.144 1.072.106.331.261.624.464.88.202.256.453.459.752.608a2.44 2.44 0 0 0 1.072.224Zm9.347-7.424c.672 0 1.253.107 1.744.32.49.213.901.512 1.232.896a3.6 3.6 0 0 1 .752 1.376c.17.523.256 1.099.256 1.728s-.086 1.211-.256 1.744c-.16.523-.411.976-.752 1.36a3.44 3.44 0 0 1-1.248.88c-.502.213-1.088.32-1.76.32-.672 0-1.259-.107-1.76-.32a3.619 3.619 0 0 1-1.248-.88 3.905 3.905 0 0 1-.752-1.36 6.047 6.047 0 0 1-.24-1.744c0-.629.08-1.205.24-1.728a3.89 3.89 0 0 1 .752-1.376 3.483 3.483 0 0 1 1.264-.896c.501-.213 1.093-.32 1.776-.32Zm-.032 7.424c.458 0 .853-.08 1.184-.24.341-.16.618-.379.832-.656.224-.288.384-.619.48-.992.106-.373.16-.779.16-1.216 0-.427-.054-.827-.16-1.2a2.53 2.53 0 0 0-.48-.992 2.159 2.159 0 0 0-.832-.672c-.331-.16-.726-.24-1.184-.24-.459 0-.854.08-1.184.24-.331.16-.608.384-.832.672a2.839 2.839 0 0 0-.48.992 4.8 4.8 0 0 0-.145 1.2c0 .437.049.843.145 1.216.106.373.266.704.48.992.224.277.501.496.832.656.33.16.725.24 1.184.24Zm12.059-7.328v1.2h-2.896V793h-1.36v-7.232h-2.896v-1.2h7.152Zm6.766 7.36c-.182.245-.39.443-.624.592a3.7 3.7 0 0 1-1.488.528 5.696 5.696 0 0 1-.736.048c-.395 0-.768-.048-1.12-.144a2.87 2.87 0 0 1-.96-.464 2.43 2.43 0 0 1-.672-.8 2.4 2.4 0 0 1-.24-1.088c0-.48.085-.88.256-1.2a2.26 2.26 0 0 1 .72-.8c.298-.203.64-.341 1.024-.416.394-.085.81-.128 1.248-.128h2.48c0-.715-.155-1.28-.464-1.696-.31-.427-.832-.651-1.568-.672-.448 0-.843.075-1.184.224a1.257 1.257 0 0 0-.704.736h-1.456a2.11 2.11 0 0 1 .448-.976c.224-.277.49-.501.8-.672a3.612 3.612 0 0 1 1.008-.4 4.748 4.748 0 0 1 1.088-.128c.629 0 1.157.107 1.584.32.437.203.789.475 1.056.816.266.331.453.736.56 1.216.106.48.16 1.019.16 1.616V793h-1.136l-.08-1.072Zm-1.6-2.736c-.256 0-.555.005-.896.016-.331 0-.651.032-.96.096a1.39 1.39 0 0 0-.752.4c-.182.203-.272.469-.272.8 0 .245.048.453.144.624.096.171.224.315.384.432.17.117.362.203.576.256.213.053.432.08.656.08.8 0 1.429-.192 1.888-.576.469-.395.709-.965.72-1.712v-.416h-1.488Z" fill="#DDD"/></g><defs><clipPath id="a"><path fill="#fff" d="M0 0h892v952H0z"/></clipPath><filter id="b" x="139" y="152" width="588" height="657.5" filterUnits="userSpaceOnUse" color-interpolation-filters="sRGB"><feFlood flood-opacity="0" result="BackgroundImageFix"/><feBlend in="SourceGraphic" in2="BackgroundImageFix" result="shape"/><feGaussianBlur stdDeviation="77.5" result="effect1_foregroundBlur_344_9385"/></filter></defs></svg>