<svg width="1054" height="1080" viewBox="0 0 1054 1080" fill="none" xmlns="http://www.w3.org/2000/svg"><g clip-path="url(#a)"><g opacity=".1" filter="url(#b)"><circle cx="524" cy="531" r="406" fill="url(#c)"/></g><path opacity=".3" d="m882.706 215.405.008.009 131.626 145.899c33.1 36.69 44.01 88.299 28.6 135.247l-61.31 186.692-.004.012-60.539 186.942c-15.224 47.011-54.463 82.265-102.83 92.388l-192.333 40.256h-.012l-192.166 41.04c-48.325 10.32-98.475-6.03-131.425-42.86L171.294 854.595l-.008-.009-131.627-145.9c-33.1-36.69-44.012-88.299-28.596-135.247L72.37 386.747l.004-.012 60.54-186.942c15.224-47.011 54.463-82.265 102.829-92.388l192.333-40.253.012-.003 192.166-41.042c48.325-10.32 98.476 6.034 131.426 42.86l131.027 146.438Z" stroke="#1E1E1E" stroke-width="6"/></g><defs><radialGradient id="c" cx="0" cy="0" r="1" gradientUnits="userSpaceOnUse" gradientTransform="matrix(0 406 -406 0 524 531)"><stop stop-color="#89EB5B"/><stop offset="1" stop-color="#89EB5B" stop-opacity="0"/></radialGradient><clipPath id="a"><path fill="#fff" d="M0 0h1054v1080H0z"/></clipPath><filter id="b" x="64" y="71" width="920" height="920" filterUnits="userSpaceOnUse" color-interpolation-filters="sRGB"><feFlood flood-opacity="0" result="BackgroundImageFix"/><feBlend in="SourceGraphic" in2="BackgroundImageFix" result="shape"/><feGaussianBlur stdDeviation="27" result="effect1_foregroundBlur_457_10584"/></filter></defs></svg>