<svg width="143" height="24" viewBox="0 0 143 24" fill="none" xmlns="http://www.w3.org/2000/svg"><path d="M30.87 21.316c0-.79.886-1.32 1.641-1.086.392.122.817.228 1.274.32 1.226.204 2.487.34 3.782.408 1.295.035 2.42.052 3.374.052h1.278c.511-.035.954-.052 1.33-.052 1.226-.034 2.3-.17 3.22-.409.92-.272 1.618-.715 2.095-1.329.512-.613.767-1.482.767-2.607 0-1.397-.375-2.3-1.124-2.709-.716-.409-1.773-.613-3.17-.613H39.51c-1.023 0-2.045-.051-3.067-.154-1.023-.102-1.943-.323-2.76-.664a4.67 4.67 0 0 1-1.994-1.738c-.511-.818-.767-1.96-.767-3.425 0-1.704.307-3.05.92-4.038a5.263 5.263 0 0 1 2.556-2.147c1.125-.478 2.403-.784 3.834-.92A52.108 52.108 0 0 1 43.037 0c1.022 0 2.147.017 3.374.051 1.227.034 2.402.12 3.527.256 1.204.11 3.332.316 4.243 1.227.409.34.613.783.613 1.329v1.175c0 .153-.214.24-.341.155-.29-.193-.686-.346-1.192-.461a15.019 15.019 0 0 0-2.454-.46 37.63 37.63 0 0 0-2.71-.205 28.135 28.135 0 0 0-2.197-.102h-3.477c-1.158 0-2.198.102-3.118.307-.92.17-1.652.545-2.198 1.124-.545.545-.818 1.397-.818 2.556 0 .886.17 1.568.512 2.045.374.443.903.75 1.584.92.716.136 1.55.204 2.505.204h6.492c1.534 0 2.88.137 4.038.41 1.193.238 2.113.8 2.76 1.686.682.886 1.023 2.284 1.023 4.192 0 1.806-.392 3.254-1.176 4.345-.784 1.056-1.857 1.823-3.22 2.3-1.363.443-2.93.716-4.703.818a47.71 47.71 0 0 1-3.067.102c-.988.035-2.028.035-3.118 0-.988 0-2.01-.034-3.067-.102a25.233 25.233 0 0 1-2.965-.358c-.886-.204-1.619-.477-2.198-.818-.546-.34-.818-.8-.818-1.38ZM59.051 1.203C59.051.539 59.59 0 60.254 0H83.1c.665 0 1.203.539 1.203 1.203v.568c0 .664-.538 1.203-1.203 1.203h-7.507c-.664 0-1.203.538-1.203 1.203v17.788c0 .765-.121 1.305-.365 1.618-.209.278-.713.417-1.513.417H70.22a1.203 1.203 0 0 1-1.203-1.203V4.177c0-.665-.538-1.203-1.203-1.203h-7.559a1.203 1.203 0 0 1-1.203-1.203v-.568ZM103.132 14.701H98.301c-1.114 0-2.299.01-3.554.03a1.194 1.194 0 0 0-1.174 1.196v6.875c0 .662-.536 1.198-1.197 1.198H89.42a1.198 1.198 0 0 1-1.197-1.198V2.961c0-1.004.207-1.714.623-2.13.45-.45 1.23-.692 2.338-.727.52-.035 1.23-.052 2.13-.052h3.065C97.52.017 98.682 0 99.859 0h3.481a70.95 70.95 0 0 1 4.883.156c1.835.173 3.186.762 4.052 1.766.865 1.004 1.298 2.528 1.298 4.572 0 1.696-.207 3.012-.623 3.948-.381.9-.97 1.593-1.766 2.078-.139.103-.364.19-.676.26a3.578 3.578 0 0 1-.805.102.08.08 0 0 0-.078.079c0 .043.035.078.078.078H110.607c.073 0 .145.006.217.02 1.252.251 2.012.764 2.282 1.538.277.797.415 1.61.415 2.442v5.506c0 .45.035.797.104 1.04.068.157-.086.415-.258.415h-3.43c-.589 0-1.056-.087-1.403-.26-.346-.207-.519-.692-.519-1.454v-4.883c0-1.074-.242-1.784-.727-2.13-.451-.381-1.264-.572-2.442-.572h-1.714Zm-9.559-3.95c0 .66.537 1.2 1.198 1.22.264.007.558.017.88.029.97 0 2.026.017 3.17.052h5.246c1.073 0 2.009-.33 2.805-.987.831-.658 1.247-1.888 1.247-3.688 0-1.247-.243-2.234-.727-2.961-.451-.728-1.195-1.143-2.234-1.247-.624-.104-1.437-.156-2.442-.156a90.459 90.459 0 0 0-6.078 0c-.866 0-1.523.017-1.974.052-.104 0-.311.052-.623.156-.312.104-.468.433-.468.987v6.542ZM118.73 24c-.826 0-1.402-.82-1.123-1.596l6.667-18.525c.483-1.241 1.138-2.19 1.966-2.845.827-.69 2.172-1.034 4.034-1.034 1.655 0 2.914.31 3.776.931.897.62 1.586 1.603 2.069 2.948l6.807 18.517A1.193 1.193 0 0 1 141.807 24h-3.193c-.504 0-.953-.316-1.123-.79l-1.658-4.627a1.192 1.192 0 0 0-1.122-.79h-10.573c-.507 0-.959.32-1.126.799l-1.613 4.61a1.193 1.193 0 0 1-1.126.798h-1.543Zm5.912-10a1.193 1.193 0 0 0 1.132 1.569h7.122c.819 0 1.394-.807 1.127-1.58l-2.714-7.886a4.237 4.237 0 0 0-.569-1.19c-.207-.344-.673-.516-1.397-.516-.758 0-1.258.19-1.5.569a4.41 4.41 0 0 0-.569 1.137L124.642 14Z" fill="#DDD"/><path fill-rule="evenodd" clip-rule="evenodd" d="M24.336 16.831 15.63 1.551c-1.173-2.056-4.133-2.071-5.326-.026L.482 18.368c-1.362 2.336.323 5.269 3.027 5.269.95 0 1.827-.512 2.293-1.34l5.442-9.645c1.378-2.442 4.859-2.543 6.375-.184l3.9 6.068a1.646 1.646 0 0 0 2.817-1.705Zm2.71 5.508a1.661 1.661 0 1 1-3.322 0 1.661 1.661 0 0 1 3.323 0Z" fill="#DDD"/></svg>